<?xml version="1.0" encoding="utf-8"?>
<!-- Generator: Adobe Illustrator 27.5.0, SVG Export Plug-In . SVG Version: 6.00 Build 0)  -->
<svg version="1.1" xmlns="http://www.w3.org/2000/svg" xmlns:xlink="http://www.w3.org/1999/xlink" x="0px" y="0px"
	 viewBox="0 0 3000 2000" style="enable-background:new 0 0 3000 2000;" xml:space="preserve">
<g id="guide" style="display:none;">
</g>
<g id="Layer_10">
</g>
<g id="Layer_9">
</g>
<g id="Layer_8">
</g>
<g id="Layer_7">
</g>
<g id="Layer_6">
</g>
<g id="Layer_5">
</g>
<g id="Layer_4">
</g>
<g id="Layer_3">
</g>
<g id="Layer_2">
</g>
<g id="Layer_1">
	<g>
		<g>
			<g>
				<path style="fill:#FCFCFC;" d="M2620.518,517.697c0-42.851-34.737-77.588-77.588-77.588c-39.79,0-72.579,29.954-77.061,68.542
					c-5.921-3.662-12.898-5.78-20.371-5.78c-13.704,0-25.739,7.112-32.64,17.839c-20.566-52.56-71.715-89.787-131.562-89.787
					c-54.383,0-101.578,30.743-125.176,75.794c-13.807-12.661-32.21-20.39-52.419-20.39c-37.025,0-67.988,25.936-75.724,60.63
					c-8.56-6.149-19.049-9.782-30.394-9.782c-28.809,0-52.164,23.355-52.164,52.165s23.355,52.164,52.164,52.164
					c20.151,0,37.621-11.434,46.31-28.161c14.231,17.201,35.74,28.161,59.808,28.161c0.106,0,0.211-0.004,0.317-0.004
					c2.845,26.122,24.968,46.454,51.847,46.454c11.771,0,22.629-3.902,31.358-10.479c24.977,22.324,57.937,35.903,94.073,35.903
					c28.755,0,55.498-8.602,77.81-23.362c14.087,14.412,33.74,23.362,55.485,23.362c41.034,0,74.624-31.856,77.398-72.186
					c1.864,0.202,3.756,0.312,5.674,0.312c26.895,0,49.029-20.356,51.853-46.5C2589.284,591.661,2620.518,558.329,2620.518,517.697z
					"/>
				<g>
					<path style="fill:#F7F7F7;" d="M2576.927,447.938c9.299,12.484,14.804,27.96,14.804,44.723c0,39.246-30.169,71.441-68.58,74.67
						c-2.728,25.253-24.107,44.914-50.084,44.914c-1.853,0-3.68-0.107-5.48-0.302c-2.68,38.954-35.123,69.724-74.758,69.724
						c-21.004,0-39.985-8.644-53.592-22.565c-21.552,14.256-47.382,22.565-75.156,22.565c-34.903,0-66.739-13.115-90.864-34.678
						c-8.431,6.352-18.919,10.122-30.289,10.122c-25.962,0-47.33-19.639-50.079-44.87c-0.102,0.001-0.204,0.004-0.306,0.004
						c-23.248,0-44.022-10.586-57.768-27.2c-8.392,16.157-25.266,27.2-44.73,27.2c-19.264,0-35.996-10.815-44.474-26.7
						c-0.09,1.255-0.152,2.517-0.152,3.795c0,28.81,23.355,52.164,52.165,52.164c20.151,0,37.621-11.434,46.31-28.161
						c14.231,17.201,35.74,28.161,59.808,28.161c0.106,0,0.211-0.004,0.317-0.004c2.845,26.122,24.968,46.454,51.847,46.454
						c11.771,0,22.629-3.902,31.358-10.479c24.977,22.324,57.937,35.903,94.073,35.903c28.755,0,55.498-8.602,77.81-23.362
						c14.087,14.412,33.74,23.362,55.485,23.362c41.034,0,74.624-31.856,77.398-72.186c1.864,0.202,3.756,0.313,5.674,0.313
						c26.895,0,49.029-20.356,51.853-46.5c39.768-3.343,71.002-36.675,71.002-77.307
						C2620.518,487.04,2602.737,460.54,2576.927,447.938z"/>
				</g>
			</g>
			<g>
				<path style="fill:#FCFCFC;" d="M1087.006,1101.182c0.023-0.975,0.037-1.951,0.037-2.931c0-68.235-55.315-123.549-123.55-123.549
					c-40.483,0-76.418,19.471-98.952,49.559c-27.374-30.424-67.049-49.559-111.197-49.559c-30.934,0-59.674,9.393-83.524,25.482
					c-8.503-3.063-17.668-4.74-27.226-4.74c-32.516,0-60.5,19.328-73.144,47.112c-9.922-4.384-20.888-6.838-32.432-6.838
					c-34.36,0-63.668,21.577-75.151,51.914c-14.703-16.281-35.975-26.517-59.64-26.517c-44.372,0-80.343,35.971-80.343,80.342
					c0,44.372,35.971,80.343,80.343,80.343c34.36,0,63.668-21.577,75.151-51.914c14.703,16.281,35.975,26.517,59.64,26.517
					c0.478,0,0.95-0.028,1.426-0.036c7.043,37.182,39.686,65.307,78.917,65.307c18.175,0,34.935-6.042,48.396-16.217
					c24.618,17.82,54.873,28.333,87.588,28.333c27.568,0,53.388-7.468,75.563-20.478c10.755,5.343,22.867,8.363,35.691,8.363
					c9.369,0,18.357-1.62,26.717-4.568c13.07,26.669,40.475,45.038,72.178,45.038c34.688,0,64.241-21.984,75.488-52.78
					c12.377,7.788,27.016,12.31,42.719,12.31c44.372,0,80.343-35.971,80.343-80.343
					C1162.044,1138.744,1128.903,1103.916,1087.006,1101.182z"/>
				<path style="fill:#F7F7F7;" d="M1087.652,1213.527c-15.703,0-30.343-4.522-42.719-12.31c-11.247,30.796-40.8,52.78-75.488,52.78
					c-31.703,0-59.107-18.368-72.177-45.038c-8.361,2.948-17.348,4.568-26.717,4.568c-12.824,0-24.936-3.019-35.691-8.363
					c-22.175,13.01-47.995,20.478-75.563,20.478c-32.715,0-62.97-10.513-87.588-28.333c-13.461,10.175-30.221,16.217-48.396,16.217
					c-39.231,0-71.874-28.125-78.917-65.307c-0.476,0.008-0.948,0.036-1.426,0.036c-23.665,0-44.937-10.236-59.64-26.517
					c-11.483,30.338-40.79,51.914-75.151,51.914c-39.36,0-72.086-28.311-78.983-65.675c-4.681,10.194-7.311,21.527-7.311,33.479
					c0,44.372,35.971,80.343,80.343,80.343c34.36,0,63.668-21.577,75.151-51.914c14.703,16.281,35.975,26.517,59.64,26.517
					c0.478,0,0.95-0.028,1.426-0.036c7.043,37.182,39.686,65.307,78.917,65.307c18.175,0,34.935-6.042,48.396-16.217
					c24.618,17.82,54.873,28.333,87.588,28.333c27.568,0,53.388-7.468,75.563-20.478c10.755,5.343,22.867,8.363,35.691,8.363
					c9.369,0,18.357-1.62,26.717-4.568c13.07,26.669,40.475,45.038,72.178,45.038c34.688,0,64.241-21.984,75.488-52.78
					c12.377,7.788,27.016,12.31,42.719,12.31c44.372,0,80.343-35.971,80.343-80.343c0-5.016-0.476-9.919-1.355-14.679
					C1147.994,1194.309,1120.076,1213.527,1087.652,1213.527z"/>
			</g>
			<g>
				<path style="fill:#E5E5E5;" d="M689.289,1426.142c-186.116,0-336.994,150.877-336.994,336.994h673.987
					C1026.283,1577.02,875.405,1426.142,689.289,1426.142z"/>
				<path style="fill:#DDDDDD;" d="M689.289,1426.142c-18.318,0-36.286,1.483-53.811,4.295
					c40.915,6.879,78.881,22.451,111.931,44.751c105.873,71.438,54.619,237.029-73.101,237.029H356.122
					c-2.517,16.606-3.827,33.609-3.827,50.918h673.987C1026.283,1577.02,875.405,1426.142,689.289,1426.142z"/>
				<path style="fill:#F2F2F2;" d="M2349.579,1763.136c112.832-146.153,179.965-329.39,179.965-528.312
					c0-477.895-387.41-865.305-865.305-865.305s-865.305,387.41-865.305,865.305c0,198.922,67.133,382.159,179.965,528.312H2349.579
					z"/>
				<path style="fill:#EAEAEA;" d="M2220.683,572.151c126.453,150.436,202.631,344.542,202.631,556.445
					c0,2.763-0.013,5.523-0.039,8.279c-2.704,288.397-238.986,520.032-527.395,520.032H908.703
					c20.821,37.189,44.301,72.688,70.195,106.229h1370.681c112.832-146.153,179.965-329.39,179.965-528.312
					C2529.543,968.833,2409.519,730.881,2220.683,572.151z"/>
				<rect x="5" y="1753.324" style="fill:#B3B3B3;" width="2871.839" height="21.086"/>
			</g>
			<g>
				<path style="fill:#FCFCFC;" d="M1123.003,421.024c0-57.537-46.643-104.18-104.18-104.18c-53.427,0-97.454,40.22-103.471,92.034
					c-7.951-4.917-17.318-7.761-27.353-7.761c-18.4,0-34.56,9.549-43.827,23.953c-27.615-70.573-96.294-120.56-176.652-120.56
					c-73.022,0-136.392,41.28-168.078,101.771c-18.539-17-43.249-27.378-70.385-27.378c-49.714,0-91.289,34.825-101.677,81.409
					c-11.493-8.257-25.578-13.135-40.81-13.135c-38.683,0-70.043,31.359-70.043,70.043s31.359,70.042,70.043,70.042
					c27.058,0,50.515-15.352,62.181-37.812c19.109,23.096,47.988,37.812,80.306,37.812c0.142,0,0.284-0.005,0.426-0.006
					c3.821,35.075,33.526,62.375,69.617,62.375c15.806,0,30.385-5.24,42.105-14.071c33.538,29.976,77.794,48.208,126.314,48.208
					c38.611,0,74.518-11.55,104.478-31.368c18.915,19.351,45.303,31.368,74.501,31.368c55.098,0,100.199-42.774,103.924-96.927
					c2.503,0.271,5.043,0.42,7.619,0.42c36.113,0,65.832-27.332,69.625-62.437C1081.063,520.338,1123.003,475.582,1123.003,421.024z
					"/>
				<g>
					<path style="fill:#F7F7F7;" d="M1064.471,327.357c12.486,16.762,19.877,37.543,19.877,60.051
						c0,52.697-40.509,95.926-92.085,100.262c-3.663,33.907-32.369,60.307-67.25,60.307c-2.487,0-4.941-0.143-7.359-0.405
						c-3.598,52.305-47.161,93.62-100.379,93.62c-28.202,0-53.689-11.607-71.959-30.298
						c-28.938,19.142-63.621,30.298-100.914,30.298c-46.866,0-89.612-17.61-122.005-46.563
						c-11.321,8.53-25.403,13.591-40.669,13.591c-34.86,0-63.552-26.37-67.242-60.248c-0.137,0.001-0.274,0.005-0.412,0.005
						c-31.215,0-59.11-14.214-77.567-36.522c-11.268,21.694-33.926,36.522-60.06,36.522c-25.866,0-48.333-14.521-59.716-35.851
						c-0.121,1.685-0.204,3.38-0.204,5.096c0,38.684,31.359,70.042,70.043,70.042c27.058,0,50.515-15.352,62.181-37.812
						c19.109,23.096,47.988,37.812,80.306,37.812c0.142,0,0.284-0.005,0.426-0.005c3.82,35.075,33.525,62.375,69.617,62.375
						c15.806,0,30.385-5.24,42.105-14.071c33.537,29.976,77.794,48.208,126.314,48.208c38.611,0,74.518-11.55,104.478-31.368
						c18.915,19.351,45.303,31.368,74.501,31.368c55.098,0,100.199-42.774,103.924-96.927c2.503,0.271,5.043,0.419,7.619,0.419
						c36.112,0,65.832-27.332,69.624-62.437c53.397-4.489,95.337-49.245,95.337-103.802
						C1123.003,379.861,1099.127,344.278,1064.471,327.357z"/>
				</g>
			</g>
			<g>
				<path style="fill:#FCFCFC;" d="M2916.638,1452.789c2.542-9.213,3.907-18.915,3.907-28.936
					c0-59.942-48.593-108.535-108.534-108.535s-108.534,48.593-108.534,108.535c0,0.247,0.008,0.494,0.01,0.741
					c-4.161-0.484-8.39-0.741-12.681-0.741c-8.586,0-16.938,1.001-24.949,2.886c-10.863-100.328-95.826-178.431-199.042-178.431
					c-77.919,0-145.438,44.511-178.53,109.49c-12.296-23.302-36.753-39.195-64.933-39.195c-40.53,0-73.386,32.856-73.386,73.386
					c0,24.725,12.24,46.578,30.979,59.874c-4.815,6.176-8.976,12.887-12.38,20.029c-9.442-4.424-19.974-6.909-31.091-6.909
					c-40.53,0-73.386,32.856-73.386,73.386c0,40.531,32.856,73.387,73.386,73.387c19.139,0,36.56-7.332,49.625-19.333
					c19.817,21.309,48.094,34.645,79.489,34.645c26.915,0,51.538-9.801,70.504-26.024c34.944,29.752,80.232,47.717,129.723,47.717
					c52.412,0,100.112-20.147,135.801-53.107c19.7,27.411,51.858,45.266,88.19,45.266c38.876,0,72.972-20.444,92.14-51.163
					c13.87,43.966,54.97,75.845,103.52,75.845c59.942,0,108.534-48.592,108.534-108.534
					C2995,1507.598,2961.899,1465.862,2916.638,1452.789z"/>
				<path style="fill:#F7F7F7;" d="M2690.806,1640.921c38.876,0,72.972-20.444,92.14-51.163
					c13.87,43.966,54.97,75.845,103.52,75.845c59.942,0,108.534-48.592,108.534-108.534c0-2.691-0.116-5.356-0.309-7.998
					c-14.356,43.133-55.042,74.236-102.998,74.236c-48.55,0-89.65-31.88-103.52-75.845c-19.168,30.719-53.264,51.163-92.14,51.163
					c-36.332,0-68.49-17.855-88.19-45.266c-35.69,32.96-83.389,53.107-135.801,53.107c-49.49,0-94.779-17.965-129.723-47.717
					c-18.967,16.223-43.59,26.024-70.504,26.024c-31.396,0-59.672-13.336-79.489-34.645c-13.065,12.001-30.486,19.333-49.625,19.333
					c-36.259,0-66.355-26.304-72.301-60.866c-4.046,9.102-6.313,19.17-6.313,29.774c0,40.531,32.856,73.387,73.386,73.387
					c19.139,0,36.56-7.332,49.625-19.333c19.817,21.309,48.094,34.645,79.489,34.645c26.915,0,51.538-9.801,70.504-26.024
					c34.944,29.752,80.232,47.717,129.723,47.717c52.412,0,100.112-20.147,135.801-53.107
					C2622.316,1623.066,2654.474,1640.921,2690.806,1640.921z"/>
			</g>
			<g>
				<path style="fill:#CCCCCC;" d="M1617.828,765.461L1617.828,765.461c-1.945,0-3.521-1.576-3.521-3.521v-28.111
					c0-1.945,1.576-3.521,3.521-3.521l0,0c1.945,0,3.521,1.576,3.521,3.521v28.111
					C1621.349,763.885,1619.773,765.461,1617.828,765.461z"/>
				<path style="fill:#CCCCCC;" d="M1617.828,809.87L1617.828,809.87c-1.945,0-3.521-1.576-3.521-3.521v-28.111
					c0-1.945,1.576-3.521,3.521-3.521l0,0c1.945,0,3.521,1.576,3.521,3.521v28.111
					C1621.349,808.294,1619.773,809.87,1617.828,809.87z"/>
				<path style="fill:#CCCCCC;" d="M1622.456,770.089L1622.456,770.089c0-1.945,1.577-3.521,3.521-3.521h28.111
					c1.945,0,3.521,1.576,3.521,3.521l0,0c0,1.945-1.576,3.521-3.521,3.521h-28.111
					C1624.033,773.61,1622.456,772.034,1622.456,770.089z"/>
				<path style="fill:#CCCCCC;" d="M1578.047,770.089L1578.047,770.089c0-1.945,1.576-3.521,3.521-3.521h28.111
					c1.945,0,3.521,1.576,3.521,3.521l0,0c0,1.945-1.576,3.521-3.521,3.521h-28.111
					C1579.624,773.61,1578.047,772.034,1578.047,770.089z"/>
			</g>
			<g>
				<path style="fill:#CCCCCC;" d="M1356.637,260.743L1356.637,260.743c-1.945,0-3.521-1.577-3.521-3.521v-28.111
					c0-1.945,1.576-3.521,3.521-3.521l0,0c1.945,0,3.521,1.576,3.521,3.521v28.111
					C1360.158,259.167,1358.582,260.743,1356.637,260.743z"/>
				<path style="fill:#CCCCCC;" d="M1356.637,305.152L1356.637,305.152c-1.945,0-3.521-1.576-3.521-3.521V273.52
					c0-1.945,1.576-3.521,3.521-3.521l0,0c1.945,0,3.521,1.576,3.521,3.521v28.111
					C1360.158,303.576,1358.582,305.152,1356.637,305.152z"/>
				<path style="fill:#CCCCCC;" d="M1361.265,265.371L1361.265,265.371c0-1.945,1.577-3.521,3.521-3.521h28.111
					c1.945,0,3.521,1.576,3.521,3.521l0,0c0,1.945-1.576,3.521-3.521,3.521h-28.111
					C1362.842,268.893,1361.265,267.316,1361.265,265.371z"/>
				<path style="fill:#CCCCCC;" d="M1316.856,265.371L1316.856,265.371c0-1.945,1.576-3.521,3.521-3.521h28.111
					c1.945,0,3.521,1.576,3.521,3.521l0,0c0,1.945-1.576,3.521-3.521,3.521h-28.111
					C1318.433,268.893,1316.856,267.316,1316.856,265.371z"/>
			</g>
			<g>
				<path style="fill:#CCCCCC;" d="M1538.266,1452.327L1538.266,1452.327c-1.945,0-3.521-1.576-3.521-3.521v-28.111
					c0-1.945,1.577-3.521,3.521-3.521l0,0c1.945,0,3.521,1.577,3.521,3.521v28.111
					C1541.787,1450.751,1540.211,1452.327,1538.266,1452.327z"/>
				<path style="fill:#CCCCCC;" d="M1538.266,1496.736L1538.266,1496.736c-1.945,0-3.521-1.576-3.521-3.521v-28.111
					c0-1.945,1.577-3.521,3.521-3.521l0,0c1.945,0,3.521,1.576,3.521,3.521v28.111
					C1541.787,1495.16,1540.211,1496.736,1538.266,1496.736z"/>
				<path style="fill:#CCCCCC;" d="M1542.894,1456.955L1542.894,1456.955c0-1.945,1.577-3.521,3.521-3.521h28.111
					c1.945,0,3.521,1.576,3.521,3.521l0,0c0,1.945-1.576,3.521-3.521,3.521h-28.111
					C1544.471,1460.476,1542.894,1458.9,1542.894,1456.955z"/>
				<path style="fill:#CCCCCC;" d="M1498.485,1456.955L1498.485,1456.955c0-1.945,1.576-3.521,3.521-3.521h28.111
					c1.945,0,3.521,1.576,3.521,3.521l0,0c0,1.945-1.576,3.521-3.521,3.521h-28.111
					C1500.062,1460.476,1498.485,1458.9,1498.485,1456.955z"/>
			</g>
			<g>
				<path style="fill:#CCCCCC;" d="M1026.283,1514.313L1026.283,1514.313c-1.945,0-3.521-1.576-3.521-3.521v-28.111
					c0-1.945,1.576-3.521,3.521-3.521l0,0c1.945,0,3.521,1.576,3.521,3.521v28.111
					C1029.804,1512.736,1028.227,1514.313,1026.283,1514.313z"/>
				<path style="fill:#CCCCCC;" d="M1026.283,1558.722L1026.283,1558.722c-1.945,0-3.521-1.577-3.521-3.521v-28.111
					c0-1.945,1.576-3.521,3.521-3.521l0,0c1.945,0,3.521,1.577,3.521,3.521v28.111
					C1029.804,1557.145,1028.227,1558.722,1026.283,1558.722z"/>
				<path style="fill:#CCCCCC;" d="M1030.911,1518.941L1030.911,1518.941c0-1.945,1.576-3.521,3.521-3.521h28.111
					c1.945,0,3.521,1.577,3.521,3.521l0,0c0,1.945-1.576,3.521-3.521,3.521h-28.111
					C1032.487,1522.462,1030.911,1520.885,1030.911,1518.941z"/>
				<path style="fill:#CCCCCC;" d="M986.502,1518.941L986.502,1518.941c0-1.945,1.576-3.521,3.521-3.521h28.111
					c1.945,0,3.521,1.577,3.521,3.521l0,0c0,1.945-1.577,3.521-3.521,3.521h-28.111
					C988.078,1522.462,986.502,1520.885,986.502,1518.941z"/>
			</g>
			<g>
				<path style="fill:#CCCCCC;" d="M2271.627,1622.252L2271.627,1622.252c-1.945,0-3.521-1.576-3.521-3.521v-28.111
					c0-1.945,1.576-3.521,3.521-3.521l0,0c1.945,0,3.521,1.576,3.521,3.521v28.111
					C2275.149,1620.676,2273.572,1622.252,2271.627,1622.252z"/>
				<path style="fill:#CCCCCC;" d="M2271.627,1666.661L2271.627,1666.661c-1.945,0-3.521-1.576-3.521-3.521v-28.111
					c0-1.945,1.576-3.521,3.521-3.521l0,0c1.945,0,3.521,1.577,3.521,3.521v28.111
					C2275.149,1665.085,2273.572,1666.661,2271.627,1666.661z"/>
				<path style="fill:#CCCCCC;" d="M2276.255,1626.88L2276.255,1626.88c0-1.945,1.576-3.521,3.521-3.521h28.111
					c1.945,0,3.521,1.576,3.521,3.521l0,0c0,1.945-1.576,3.521-3.521,3.521h-28.111
					C2277.832,1630.401,2276.255,1628.825,2276.255,1626.88z"/>
				<path style="fill:#CCCCCC;" d="M2231.846,1626.88L2231.846,1626.88c0-1.945,1.576-3.521,3.521-3.521h28.111
					c1.945,0,3.521,1.576,3.521,3.521l0,0c0,1.945-1.576,3.521-3.521,3.521h-28.111
					C2233.423,1630.401,2231.846,1628.825,2231.846,1626.88z"/>
			</g>
			<g>
				<path style="fill:#CCCCCC;" d="M1150.05,907.009L1150.05,907.009c-1.945,0-3.521-1.577-3.521-3.521v-28.111
					c0-1.945,1.576-3.521,3.521-3.521l0,0c1.945,0,3.521,1.576,3.521,3.521v28.111
					C1153.571,905.432,1151.995,907.009,1150.05,907.009z"/>
				<path style="fill:#CCCCCC;" d="M1150.05,951.418L1150.05,951.418c-1.945,0-3.521-1.576-3.521-3.521v-28.111
					c0-1.945,1.576-3.521,3.521-3.521l0,0c1.945,0,3.521,1.576,3.521,3.521v28.111
					C1153.571,949.841,1151.995,951.418,1150.05,951.418z"/>
				<path style="fill:#CCCCCC;" d="M1154.678,911.637L1154.678,911.637c0-1.945,1.576-3.521,3.521-3.521h28.111
					c1.945,0,3.521,1.576,3.521,3.521l0,0c0,1.945-1.576,3.521-3.521,3.521h-28.111
					C1156.254,915.158,1154.678,913.581,1154.678,911.637z"/>
				<path style="fill:#CCCCCC;" d="M1110.269,911.637L1110.269,911.637c0-1.945,1.577-3.521,3.521-3.521h28.111
					c1.945,0,3.521,1.576,3.521,3.521l0,0c0,1.945-1.577,3.521-3.521,3.521h-28.111
					C1111.845,915.158,1110.269,913.581,1110.269,911.637z"/>
			</g>
			<g>
				<path style="fill:#CCCCCC;" d="M1613.2,1163.015L1613.2,1163.015c-1.945,0-3.521-1.576-3.521-3.521v-28.111
					c0-1.945,1.577-3.521,3.521-3.521l0,0c1.945,0,3.521,1.576,3.521,3.521v28.111
					C1616.722,1161.439,1615.145,1163.015,1613.2,1163.015z"/>
				<path style="fill:#CCCCCC;" d="M1613.2,1207.424L1613.2,1207.424c-1.945,0-3.521-1.577-3.521-3.521v-28.111
					c0-1.945,1.577-3.521,3.521-3.521l0,0c1.945,0,3.521,1.576,3.521,3.521v28.111
					C1616.722,1205.848,1615.145,1207.424,1613.2,1207.424z"/>
				<path style="fill:#CCCCCC;" d="M1617.828,1167.643L1617.828,1167.643c0-1.945,1.577-3.521,3.521-3.521h28.111
					c1.945,0,3.521,1.577,3.521,3.521l0,0c0,1.945-1.576,3.521-3.521,3.521h-28.111
					C1619.405,1171.164,1617.828,1169.588,1617.828,1167.643z"/>
				<path style="fill:#CCCCCC;" d="M1573.419,1167.643L1573.419,1167.643c0-1.945,1.576-3.521,3.521-3.521h28.111
					c1.945,0,3.521,1.577,3.521,3.521l0,0c0,1.945-1.576,3.521-3.521,3.521h-28.111
					C1574.996,1171.164,1573.419,1169.588,1573.419,1167.643z"/>
			</g>
			<g>
				<path style="fill:#CCCCCC;" d="M557.352,1452.327L557.352,1452.327c-1.945,0-3.521-1.576-3.521-3.521v-28.111
					c0-1.945,1.577-3.521,3.521-3.521l0,0c1.945,0,3.521,1.577,3.521,3.521v28.111
					C560.873,1450.751,559.297,1452.327,557.352,1452.327z"/>
				<path style="fill:#CCCCCC;" d="M557.352,1496.736L557.352,1496.736c-1.945,0-3.521-1.576-3.521-3.521v-28.111
					c0-1.945,1.577-3.521,3.521-3.521l0,0c1.945,0,3.521,1.576,3.521,3.521v28.111
					C560.873,1495.16,559.297,1496.736,557.352,1496.736z"/>
				<path style="fill:#CCCCCC;" d="M561.98,1456.955L561.98,1456.955c0-1.945,1.577-3.521,3.521-3.521h28.111
					c1.945,0,3.521,1.576,3.521,3.521l0,0c0,1.945-1.576,3.521-3.521,3.521h-28.111C563.556,1460.476,561.98,1458.9,561.98,1456.955
					z"/>
				<path style="fill:#CCCCCC;" d="M517.571,1456.955L517.571,1456.955c0-1.945,1.576-3.521,3.521-3.521h28.111
					c1.945,0,3.521,1.576,3.521,3.521l0,0c0,1.945-1.576,3.521-3.521,3.521h-28.111
					C519.147,1460.476,517.571,1458.9,517.571,1456.955z"/>
			</g>
			<g>
				<path style="fill:#CCCCCC;" d="M817.455,827.447L817.455,827.447c-1.945,0-3.521-1.576-3.521-3.521v-28.111
					c0-1.945,1.576-3.521,3.521-3.521l0,0c1.945,0,3.521,1.577,3.521,3.521v28.111C820.977,825.87,819.4,827.447,817.455,827.447z"
					/>
				<path style="fill:#CCCCCC;" d="M817.455,871.856L817.455,871.856c-1.945,0-3.521-1.576-3.521-3.521v-28.111
					c0-1.945,1.576-3.521,3.521-3.521l0,0c1.945,0,3.521,1.576,3.521,3.521v28.111C820.977,870.279,819.4,871.856,817.455,871.856z"
					/>
				<path style="fill:#CCCCCC;" d="M822.083,832.075L822.083,832.075c0-1.945,1.576-3.521,3.521-3.521h28.111
					c1.945,0,3.521,1.576,3.521,3.521l0,0c0,1.945-1.577,3.521-3.521,3.521h-28.111C823.66,835.596,822.083,834.019,822.083,832.075
					z"/>
				<path style="fill:#CCCCCC;" d="M777.674,832.075L777.674,832.075c0-1.945,1.576-3.521,3.521-3.521h28.111
					c1.945,0,3.521,1.576,3.521,3.521l0,0c0,1.945-1.576,3.521-3.521,3.521h-28.111
					C779.251,835.596,777.674,834.019,777.674,832.075z"/>
			</g>
			<g>
				<path style="fill:#CCCCCC;" d="M2047.696,1103.351L2047.696,1103.351c-1.945,0-3.521-1.576-3.521-3.521v-28.111
					c0-1.945,1.576-3.521,3.521-3.521l0,0c1.945,0,3.521,1.577,3.521,3.521v28.111
					C2051.217,1101.775,2049.641,1103.351,2047.696,1103.351z"/>
				<path style="fill:#CCCCCC;" d="M2047.696,1147.76L2047.696,1147.76c-1.945,0-3.521-1.576-3.521-3.521v-28.111
					c0-1.945,1.576-3.521,3.521-3.521l0,0c1.945,0,3.521,1.576,3.521,3.521v28.111
					C2051.217,1146.183,2049.641,1147.76,2047.696,1147.76z"/>
				<path style="fill:#CCCCCC;" d="M2052.324,1107.979L2052.324,1107.979c0-1.945,1.576-3.521,3.521-3.521h28.111
					c1.945,0,3.521,1.576,3.521,3.521l0,0c0,1.945-1.576,3.521-3.521,3.521h-28.111
					C2053.9,1111.5,2052.324,1109.923,2052.324,1107.979z"/>
				<path style="fill:#CCCCCC;" d="M2007.915,1107.979L2007.915,1107.979c0-1.945,1.576-3.521,3.521-3.521h28.111
					c1.945,0,3.521,1.576,3.521,3.521l0,0c0,1.945-1.576,3.521-3.521,3.521h-28.111
					C2009.491,1111.5,2007.915,1109.923,2007.915,1107.979z"/>
			</g>
			<g>
				<path style="fill:#CCCCCC;" d="M2103.868,322.729L2103.868,322.729c-1.945,0-3.521-1.576-3.521-3.521v-28.111
					c0-1.945,1.577-3.521,3.521-3.521l0,0c1.945,0,3.521,1.576,3.521,3.521v28.111
					C2107.389,321.153,2105.813,322.729,2103.868,322.729z"/>
				<path style="fill:#CCCCCC;" d="M2103.868,367.138L2103.868,367.138c-1.945,0-3.521-1.577-3.521-3.521v-28.111
					c0-1.945,1.577-3.521,3.521-3.521l0,0c1.945,0,3.521,1.577,3.521,3.521v28.111
					C2107.389,365.561,2105.813,367.138,2103.868,367.138z"/>
				<path style="fill:#CCCCCC;" d="M2108.496,327.357L2108.496,327.357c0-1.945,1.576-3.521,3.521-3.521h28.111
					c1.945,0,3.521,1.577,3.521,3.521l0,0c0,1.945-1.576,3.521-3.521,3.521h-28.111
					C2110.073,330.878,2108.496,329.302,2108.496,327.357z"/>
				<path style="fill:#CCCCCC;" d="M2064.087,327.357L2064.087,327.357c0-1.945,1.576-3.521,3.521-3.521h28.111
					c1.945,0,3.521,1.577,3.521,3.521l0,0c0,1.945-1.576,3.521-3.521,3.521h-28.111
					C2065.664,330.878,2064.087,329.302,2064.087,327.357z"/>
			</g>
			<g>
				<path style="fill:#CCCCCC;" d="M2660.3,827.447L2660.3,827.447c-1.945,0-3.521-1.576-3.521-3.521v-28.111
					c0-1.945,1.576-3.521,3.521-3.521h0c1.945,0,3.521,1.577,3.521,3.521v28.111C2663.821,825.87,2662.244,827.447,2660.3,827.447z"
					/>
				<path style="fill:#CCCCCC;" d="M2660.3,871.856L2660.3,871.856c-1.945,0-3.521-1.576-3.521-3.521v-28.111
					c0-1.945,1.576-3.521,3.521-3.521h0c1.945,0,3.521,1.576,3.521,3.521v28.111C2663.821,870.279,2662.244,871.856,2660.3,871.856z
					"/>
				<path style="fill:#CCCCCC;" d="M2664.927,832.075L2664.927,832.075c0-1.945,1.576-3.521,3.521-3.521h28.111
					c1.945,0,3.521,1.576,3.521,3.521l0,0c0,1.945-1.576,3.521-3.521,3.521h-28.111
					C2666.504,835.596,2664.927,834.019,2664.927,832.075z"/>
				<path style="fill:#CCCCCC;" d="M2620.518,832.075L2620.518,832.075c0-1.945,1.576-3.521,3.521-3.521h28.111
					c1.945,0,3.521,1.576,3.521,3.521l0,0c0,1.945-1.576,3.521-3.521,3.521h-28.111
					C2622.095,835.596,2620.518,834.019,2620.518,832.075z"/>
			</g>
			<g>
				<path style="fill:#CCCCCC;" d="M2047.696,615.811L2047.696,615.811c-1.945,0-3.521-1.576-3.521-3.521v-28.111
					c0-1.945,1.576-3.521,3.521-3.521l0,0c1.945,0,3.521,1.576,3.521,3.521v28.111
					C2051.217,614.235,2049.641,615.811,2047.696,615.811z"/>
				<path style="fill:#CCCCCC;" d="M2047.696,660.22L2047.696,660.22c-1.945,0-3.521-1.576-3.521-3.521v-28.111
					c0-1.945,1.576-3.521,3.521-3.521l0,0c1.945,0,3.521,1.576,3.521,3.521v28.111
					C2051.217,658.644,2049.641,660.22,2047.696,660.22z"/>
				<path style="fill:#CCCCCC;" d="M2052.324,620.439L2052.324,620.439c0-1.945,1.576-3.521,3.521-3.521h28.111
					c1.945,0,3.521,1.576,3.521,3.521l0,0c0,1.945-1.576,3.521-3.521,3.521h-28.111
					C2053.9,623.96,2052.324,622.384,2052.324,620.439z"/>
				<path style="fill:#CCCCCC;" d="M2007.915,620.439L2007.915,620.439c0-1.945,1.576-3.521,3.521-3.521h28.111
					c1.945,0,3.521,1.576,3.521,3.521l0,0c0,1.945-1.576,3.521-3.521,3.521h-28.111
					C2009.491,623.96,2007.915,622.384,2007.915,620.439z"/>
			</g>
			
				<ellipse transform="matrix(0.2298 -0.9732 0.9732 0.2298 611.0477 2480.6499)" style="fill:#CCCCCC;" cx="1872.741" cy="854.279" rx="27.753" ry="27.753"/>
			
				<ellipse transform="matrix(0.1602 -0.9871 0.9871 0.1602 318.3934 2769.1077)" style="fill:#CCCCCC;" cx="1786.545" cy="1197.44" rx="17.769" ry="17.77"/>
			
				<ellipse transform="matrix(0.2298 -0.9732 0.9732 0.2298 749.0682 2895.8918)" style="fill:#CCCCCC;" cx="2204.093" cy="974.702" rx="27.753" ry="27.753"/>
			
				<ellipse transform="matrix(0.2298 -0.9732 0.9732 0.2298 1203.39 3051.4705)" style="fill:#CCCCCC;" cx="2529.543" cy="765.461" rx="27.753" ry="27.753"/>
			
				<ellipse transform="matrix(0.0767 -0.9971 0.9971 0.0767 1208.6871 1950.7007)" style="fill:#CCCCCC;" cx="1657.609" cy="322.729" rx="27.753" ry="27.753"/>
			<circle style="fill:#CCCCCC;" cx="1062.923" cy="1194.106" r="14.436"/>
			<circle style="fill:#CCCCCC;" cx="669.765" cy="809.87" r="27.753"/>
			<circle style="fill:#CCCCCC;" cx="741.965" cy="1360.258" r="27.753"/>
			<circle style="fill:#CCCCCC;" cx="663.341" cy="1336.795" r="13.199"/>
			
				<ellipse transform="matrix(0.7071 -0.7071 0.7071 0.7071 -430.1266 1775.5771)" style="fill:#CCCCCC;" cx="1928.248" cy="1406.997" rx="27.753" ry="27.753"/>
			<circle style="fill:#CCCCCC;" cx="1420.908" cy="948.154" r="24.49"/>
			
				<ellipse transform="matrix(0.1588 -0.9873 0.9873 0.1588 402.12 1538.6045)" style="fill:#CCCCCC;" cx="1103.994" cy="533.317" rx="27.753" ry="27.753"/>
			
				<ellipse transform="matrix(0.9239 -0.3827 0.3827 0.9239 -418.7119 1084.2704)" style="fill:#CCCCCC;" cx="2516.144" cy="1594.639" rx="27.753" ry="27.753"/>
		</g>
		<g>
			<g>
				<path style="fill:#FFC942;" d="M1125.483,1094.367c66.189,72.176,162.397,113.808,282.042,131.592l-33.734,281.713
					c-10.321,86.188-72.033,157.429-155.868,179.935l-92.441,24.817l-92.441-24.817c-83.835-22.506-145.547-93.748-155.868-179.935
					l-33.734-281.713C963.086,1208.176,1059.294,1166.543,1125.483,1094.367z"/>
				<path style="fill:#FFB703;" d="M1125.483,1094.367c66.189,72.176,162.397,113.808,282.042,131.592l-33.734,281.713
					c-10.321,86.188-72.033,157.429-155.868,179.935l-92.441,24.817V1094.367z"/>
				<path style="fill:#FFF9ED;" d="M1042.31,1653.084c-34.213-9.185-64.557-28.192-87.751-54.968
					c-23.194-26.776-37.68-59.52-41.892-94.694l-29.693-247.967c100.437-19.51,181.732-56.71,242.509-110.952
					c60.776,54.242,142.072,91.443,242.509,110.952l-29.692,247.967c-4.212,35.173-18.698,67.918-41.892,94.694
					c-23.194,26.775-53.538,45.783-87.751,54.968l-83.173,22.329L1042.31,1653.084z"/>
				<path style="fill:#FFF2DC;" d="M974.96,1613.476c-23.98-27.682-38.956-61.536-43.311-97.9l-9.912-82.775
					c-10.924-91.225,37.742-179.596,121.184-218.05c35.669-16.438,67.595-36.153,95.668-59.091
					c-4.466-3.638-8.843-7.351-13.107-11.157c-60.776,54.242-142.071,91.443-242.509,110.952l29.693,247.967
					c4.212,35.173,18.698,67.918,41.892,94.694c11.007,12.707,23.627,23.66,37.503,32.648
					C986.02,1625.415,980.305,1619.646,974.96,1613.476z"/>
			</g>
			<g>
				<g>
					<path style="fill:#90CFDE;" d="M1983.231,789.985l51.323,45.403l-48.844,48.06c-2.727,2.684-3.502,6.778-1.945,10.272
						l14.686,32.955c1.557,3.495,5.12,5.656,8.939,5.422l68.396-4.186l-0.554,68.521c-0.031,3.826,2.316,7.269,5.888,8.639
						l33.687,12.918c3.573,1.37,7.62,0.379,10.155-2.487l45.403-51.323l48.06,48.844c2.683,2.727,6.778,3.503,10.272,1.945
						l32.955-14.686c3.495-1.557,5.656-5.12,5.422-8.939l-4.186-68.396l68.521,0.555c3.826,0.031,7.269-2.316,8.639-5.888
						l12.918-33.687c1.37-3.572,0.379-7.62-2.487-10.155l-51.323-45.403l48.844-48.06c2.727-2.683,3.502-6.778,1.945-10.272
						l-14.686-32.955c-1.557-3.495-5.12-5.656-8.939-5.422l-68.396,4.186l0.555-68.521c0.031-3.826-2.316-7.269-5.888-8.639
						l-33.687-12.918c-3.573-1.37-7.62-0.379-10.155,2.487l-45.403,51.323l-48.06-48.844c-2.684-2.727-6.778-3.503-10.272-1.945
						l-32.955,14.686c-3.495,1.557-5.656,5.12-5.422,8.939l4.185,68.396l-68.521-0.555c-3.826-0.031-7.269,2.316-8.639,5.888
						l-12.918,33.687C1979.375,783.403,1980.366,787.45,1983.231,789.985z M2197.033,753.188
						c43.46,16.666,65.181,65.408,48.515,108.869s-65.408,65.181-108.868,48.515s-65.181-65.408-48.515-108.868
						S2153.573,736.522,2197.033,753.188z"/>
					<path style="fill:#59B6CD;" d="M2112.344,974.03c78.507,30.106,166.556-9.131,196.662-87.638
						c30.106-78.507-9.131-166.556-87.638-196.662c-78.507-30.106-166.556,9.131-196.662,87.638
						C1994.6,855.875,2033.837,943.924,2112.344,974.03z M2201.538,741.44c49.949,19.154,74.912,75.173,55.758,125.122
						c-19.154,49.948-75.173,74.912-125.122,55.758s-74.912-75.173-55.758-125.122
						C2095.57,747.249,2151.589,722.286,2201.538,741.44z"/>
				</g>
				<g>
					<path style="fill:#FFF2DC;" d="M1885.187,478.063l38.58,34.13l-36.716,36.127c-2.05,2.017-2.633,5.095-1.462,7.722
						l11.039,24.773c1.171,2.627,3.849,4.252,6.72,4.076l51.414-3.146l-0.417,51.508c-0.023,2.876,1.741,5.464,4.426,6.494
						l25.323,9.711c2.685,1.03,5.728,0.285,7.633-1.87l34.13-38.58l36.127,36.716c2.017,2.05,5.095,2.633,7.722,1.462l24.773-11.039
						c2.627-1.171,4.251-3.849,4.076-6.72l-3.146-51.413l51.508,0.417c2.876,0.023,5.464-1.741,6.494-4.426l9.711-25.323
						c1.03-2.685,0.285-5.728-1.869-7.634l-38.58-34.13l36.716-36.127c2.05-2.017,2.633-5.095,1.462-7.722l-11.039-24.773
						c-1.171-2.627-3.849-4.252-6.72-4.076l-51.413,3.146l0.417-51.508c0.023-2.876-1.741-5.464-4.426-6.494l-25.323-9.711
						c-2.685-1.03-5.728-0.285-7.634,1.869l-34.13,38.579l-36.127-36.716c-2.017-2.05-5.095-2.633-7.722-1.462l-24.773,11.039
						c-2.627,1.171-4.252,3.849-4.076,6.72l3.146,51.413l-51.508-0.417c-2.876-0.023-5.464,1.741-6.494,4.426l-9.711,25.323
						C1882.288,473.115,1883.033,476.158,1885.187,478.063z M2045.903,450.403c32.67,12.528,48.997,49.168,36.469,81.837
						s-49.168,48.997-81.837,36.469c-32.669-12.528-48.997-49.168-36.469-81.837S2013.234,437.875,2045.903,450.403z"/>
					<path style="fill:#FFECCA;" d="M1982.242,616.411c59.015,22.631,125.201-6.864,147.833-65.878
						c22.631-59.015-6.864-125.201-65.878-147.832c-59.015-22.631-125.201,6.864-147.832,65.878
						C1893.733,527.594,1923.228,593.78,1982.242,616.411z M2049.29,441.572c37.547,14.398,56.312,56.508,41.914,94.055
						s-56.508,56.312-94.055,41.914s-56.312-56.508-41.914-94.055S2011.743,427.173,2049.29,441.572z"/>
				</g>
				<g>
					<path style="fill:#416475;" d="M2172.486,532.11l24.209,21.417l-23.04,22.67c-1.287,1.266-1.652,3.197-0.918,4.846
						l6.927,15.545c0.735,1.648,2.415,2.668,4.217,2.558l32.262-1.974l-0.262,32.322c-0.014,1.805,1.093,3.429,2.778,4.075
						l15.89,6.094c1.685,0.646,3.594,0.179,4.79-1.173l21.417-24.209l22.67,23.04c1.266,1.286,3.197,1.652,4.846,0.917l15.545-6.927
						c1.648-0.735,2.668-2.415,2.558-4.217l-1.974-32.262l32.322,0.262c1.805,0.015,3.429-1.092,4.075-2.778l6.094-15.89
						c0.646-1.685,0.178-3.594-1.173-4.79l-24.209-21.417l23.04-22.67c1.286-1.266,1.652-3.197,0.917-4.846l-6.927-15.545
						c-0.735-1.649-2.415-2.668-4.217-2.558l-32.262,1.974l0.261-32.322c0.015-1.805-1.092-3.429-2.777-4.075l-15.891-6.094
						c-1.685-0.646-3.594-0.179-4.79,1.173l-21.417,24.209l-22.67-23.04c-1.266-1.286-3.197-1.652-4.845-0.918l-15.545,6.927
						c-1.648,0.734-2.668,2.415-2.558,4.217l1.974,32.262l-32.322-0.262c-1.805-0.015-3.429,1.092-4.075,2.777l-6.094,15.89
						C2170.667,529.005,2171.134,530.914,2172.486,532.11z M2273.337,514.753c20.5,7.862,30.746,30.853,22.885,51.354
						c-7.861,20.5-30.853,30.746-51.354,22.885c-20.5-7.862-30.746-30.853-22.885-51.354
						C2229.845,517.137,2252.836,506.891,2273.337,514.753z"/>
					<path style="fill:#023047;" d="M2233.389,618.924c37.032,14.201,78.565-4.307,92.766-41.339
						c14.201-37.032-4.307-78.565-41.339-92.766c-37.032-14.201-78.565,4.307-92.766,41.339S2196.357,604.723,2233.389,618.924z
						 M2275.462,509.211c23.561,9.035,35.336,35.46,26.301,59.02c-9.035,23.561-35.459,35.336-59.021,26.301
						c-23.561-9.035-35.336-35.46-26.301-59.02C2225.477,511.951,2251.901,500.176,2275.462,509.211z"/>
				</g>
			</g>
			<g>
				<path style="fill:#416475;" d="M1894.022,1613.631h-702.106c-36.69,0-66.433-29.743-66.433-66.433V354.009
					c0-36.69,29.743-66.433,66.433-66.433h702.106c36.69,0,66.433,29.743,66.433,66.433v1193.189
					C1960.455,1583.888,1930.712,1613.631,1894.022,1613.631z"/>
				<path style="fill:#C8E7EE;" d="M1941.076,354.009v1193.19c0,25.981-21.071,47.052-47.052,47.052h-702.11
					c-25.981,0-47.052-21.071-47.052-47.052V354.009c0-25.981,21.071-47.052,47.052-47.052h163.559c8.23,0,15.87,4.264,20.19,11.266
					l17.55,28.428c3.368,5.459,9.328,8.787,15.749,8.787h268.016c6.421,0,12.381-3.327,15.749-8.787l17.55-28.428
					c4.321-7.002,11.961-11.266,20.191-11.266h163.559C1920.005,306.957,1941.076,328.028,1941.076,354.009z"/>
				<g>
					<path style="fill:#90CFDE;" d="M1899.463,307.28c0.206,1.786,0.323,3.598,0.323,5.439v1030.206
						c0,115.999-94.036,210.036-210.036,210.036h-539.126c-1.841,0-3.653-0.117-5.439-0.323
						c2.699,23.418,22.589,41.613,46.729,41.613h702.11c25.986,0,47.052-21.066,47.052-47.052V354.009
						C1941.076,329.868,1922.881,309.979,1899.463,307.28z"/>
					<path style="fill:#90CFDE;" d="M1367.671,314.148h4.801c-4.416-4.54-10.521-7.191-17-7.191h-2.435
						C1356.517,311.458,1361.905,314.148,1367.671,314.148z"/>
				</g>
				<g>
					<path style="fill:#416475;" d="M1542.969,994.271L1542.969,994.271c-70.477,0-127.609,57.132-127.609,127.609v127.609h34.957
						V1121.88c0-51.088,41.563-92.652,92.652-92.652c51.088,0,92.651,41.564,92.651,92.652v127.609h34.958V1121.88
						C1670.578,1051.404,1613.446,994.271,1542.969,994.271z"/>
					<path style="fill:#416475;" d="M1705.045,1182.453v210.064c0,34.742-28.167,62.909-62.909,62.909h-198.328
						c-34.749,0-62.916-28.167-62.916-62.909v-210.064H1705.045z"/>
					<path style="fill:#023047;" d="M1681.345,1182.453v110.148c0,76.837-62.288,139.125-139.125,139.125h-122.111
						c-11.287,0-21.871-2.987-31.03-8.192c10.816,19.039,31.265,31.891,54.729,31.891h198.328c34.743,0,62.908-28.165,62.908-62.909
						v-210.065H1681.345z"/>
					<rect x="1380.893" y="1182.453" style="fill:#8198A3;" width="324.153" height="78.981"/>
					<rect x="1681.345" y="1182.453" style="fill:#416475;" width="23.7" height="78.982"/>
					<path style="fill:#8198A3;" d="M1571.663,1322.189c0-16.466-13.87-29.693-30.565-28.634
						c-14.112,0.895-25.647,12.259-26.735,26.357c-0.858,11.118,4.628,21.022,13.216,26.49c2.02,1.286,2.956,3.739,2.208,6.013
						l-8.309,25.276c-1.905,5.795,2.412,11.759,8.513,11.759h25.954c6.1,0,10.418-5.964,8.512-11.759l-8.307-25.272
						c-0.751-2.286,0.204-4.74,2.233-6.034C1566.367,1341.292,1571.663,1332.361,1571.663,1322.189z"/>
					<path style="fill:#023047;" d="M1526.838,1377.692l8.309-25.276c0.748-2.275-0.189-4.728-2.209-6.014
						c-8.588-5.468-14.074-15.372-13.216-26.49c1.068-13.839,12.202-25.034,25.957-26.29c-1.496-0.14-3.026-0.167-4.58-0.068
						c-14.112,0.895-25.647,12.259-26.735,26.358c-0.858,11.118,4.628,21.022,13.216,26.49c2.02,1.286,2.956,3.739,2.208,6.014
						l-8.309,25.276c-1.905,5.795,2.412,11.759,8.513,11.759h5.358C1529.25,1389.45,1524.933,1383.487,1526.838,1377.692z"/>
				</g>
				<path style="fill:#FFF9ED;" d="M1750.769,457.188h-542.743c-14.705,0-26.625,11.921-26.625,26.625v178.183
					c0,14.705,11.92,26.625,26.625,26.625h38.656c4.389,0,7.947,3.558,7.947,7.947v39.918l48.374-41.113
					c5.129-4.359,11.641-6.752,18.372-6.752h429.393c14.705,0,26.625-11.92,26.625-26.625V483.813
					C1777.394,469.108,1765.474,457.188,1750.769,457.188z"/>
				<path style="fill:#FFF2DC;" d="M1759.684,458.722c0.99,2.788,1.534,5.787,1.534,8.915v102.027
					c0,56.765-46.017,102.782-102.782,102.782H1191.85c-3.127,0-6.127-0.544-8.915-1.534c3.667,10.319,13.514,17.711,25.091,17.711
					h38.656c4.389,0,7.947,3.558,7.947,7.947v39.918l48.374-41.113c5.129-4.359,11.641-6.752,18.372-6.752h429.393
					c14.705,0,26.625-11.92,26.625-26.625V483.813C1777.394,472.236,1770.003,462.389,1759.684,458.722z"/>
				<g>
					<path style="fill:#416475;" d="M1395.115,566.336h-7.363c0.033-1.933,0.206-3.438,0.517-4.514
						c0.311-1.076,0.849-2.126,1.614-3.152c0.765-1.025,1.769-1.853,3.013-2.484c1.244-0.63,2.589-0.946,4.034-0.946
						c2.589,0,4.724,0.929,6.405,2.786c1.681,1.858,2.521,4.215,2.521,7.073c0,3.328-1.286,5.943-3.858,7.842
						c3.026,1.563,4.539,4.354,4.539,8.372c0,1.597-0.374,3.19-1.122,4.778c-0.748,1.589-1.837,2.74-3.265,3.455
						c-1.429,0.714-3.102,1.072-5.018,1.072c-2.875,0-5.229-0.845-7.06-2.534c-1.833-1.69-2.816-4.013-2.95-6.972h7.237
						c0.033,2.068,0.857,3.102,2.471,3.102c1.58,0,2.37-1.412,2.37-4.236c0-1.311-0.231-2.223-0.693-2.736
						c-0.463-0.513-1.282-0.769-2.459-0.769h-2.32v-6.985h2.521c1.076,0,1.845-0.281,2.307-0.845
						c0.462-0.563,0.693-1.484,0.693-2.761c0-2.757-0.773-4.135-2.32-4.135c-0.723,0-1.206,0.286-1.45,0.857
						c-0.244,0.572-0.366,1.58-0.366,3.026V566.336z"/>
					<path style="fill:#416475;" d="M1434.452,556.073h7.842v20.854h2.623v6.102h-2.623v6.708h-6.985v-6.708h-10.793v-5.472
						L1434.452,556.073z M1435.209,566.235l-4.892,10.692h4.993v-10.692H1435.209z"/>
					<path style="fill:#416475;" d="M1464.61,556.073h19.795l-12.709,33.663h-7.741l9.96-26.754h-9.305V556.073z"/>
					<path style="fill:#416475;" d="M1514.639,571.354c1.916,0.824,3.4,2.076,4.451,3.757c1.05,1.681,1.576,3.581,1.576,5.699
						c0,2.975-0.916,5.354-2.748,7.136c-1.832,1.782-4.287,2.673-7.363,2.673c-3.144,0-5.628-0.882-7.452-2.648
						c-1.824-1.765-2.736-4.152-2.736-7.161c0-0.757,0.05-1.466,0.152-2.131c0.101-0.664,0.256-1.286,0.466-1.866
						c0.21-0.58,0.475-1.126,0.794-1.639c0.319-0.513,0.693-0.987,1.122-1.425c0.428-0.437,0.933-0.845,1.513-1.223
						c0.58-0.378,1.181-0.752,1.803-1.122v-0.05h-0.051c0-0.034-0.017-0.051-0.05-0.051c0-0.033-0.017-0.05-0.05-0.05
						c-1.009-0.47-1.845-0.992-2.509-1.563c-0.664-0.571-1.231-1.383-1.702-2.433c-0.471-1.05-0.706-2.265-0.706-3.644
						c0-2.404,0.891-4.409,2.673-6.014c1.781-1.605,4.009-2.408,6.682-2.408c2.723,0,4.95,0.816,6.682,2.446
						c1.731,1.631,2.597,3.724,2.597,6.279c0,1.681-0.416,3.11-1.248,4.287C1517.703,569.379,1516.404,570.429,1514.639,571.354z
						 M1513.227,580.179c0-3.295-0.908-4.942-2.723-4.942c-1.9,0-2.85,1.513-2.85,4.539c0,3.228,0.967,4.841,2.9,4.841
						C1512.336,584.617,1513.227,583.138,1513.227,580.179z M1512.42,564.999c0-2.437-0.639-3.656-1.916-3.656
						c-1.311,0-1.967,1.084-1.967,3.253c0,1.311,0.155,2.24,0.467,2.786c0.311,0.547,0.828,0.82,1.551,0.82
						C1511.798,568.202,1512.42,567.134,1512.42,564.999z"/>
					<path style="fill:#416475;" d="M1548.428,555.19c3.648,0,6.418,1.505,8.309,4.514c1.891,3.009,2.837,7.439,2.837,13.289
						c0,5.699-0.963,10.061-2.887,13.087c-1.925,3.026-4.678,4.539-8.259,4.539c-3.396,0-6.098-1.416-8.107-4.249
						c-2.009-2.832-3.013-7.409-3.013-13.73c0-5.548,0.966-9.843,2.9-12.885c1.933-3.042,4.64-4.564,8.12-4.564H1548.428z
						 M1544.646,572.589c0,7.195,1.243,10.793,3.732,10.793c1.345,0,2.316-0.794,2.912-2.383s0.895-4.114,0.895-7.577
						c0-3.816-0.299-6.594-0.895-8.334c-0.597-1.74-1.584-2.61-2.963-2.61C1545.873,562.478,1544.646,565.848,1544.646,572.589z"/>
				</g>
				<rect x="1248.58" y="565.882" style="fill:#416475;" width="121.679" height="14.045"/>
				<rect x="1248.58" y="528.702" style="fill:#416475;" width="121.679" height="14.045"/>
				<rect x="1248.58" y="491.523" style="fill:#416475;" width="209.736" height="14.045"/>
				<rect x="1384.078" y="528.702" style="fill:#416475;" width="205.698" height="14.045"/>
				<rect x="1248.58" y="640.241" style="fill:#416475;" width="121.679" height="14.045"/>
				<rect x="1488.379" y="603.062" style="fill:#416475;" width="209.736" height="14.045"/>
				<rect x="1248.58" y="603.062" style="fill:#416475;" width="209.736" height="14.045"/>
				<rect x="1384.078" y="640.241" style="fill:#416475;" width="205.698" height="14.045"/>
				<rect x="1576.437" y="565.882" style="fill:#416475;" width="121.679" height="14.045"/>
			</g>
		</g>
	</g>
</g>
</svg>
